<?xml version="1.0" standalone="no"?>
<!DOCTYPE svg PUBLIC "-//W3C//DTD SVG 20010904//EN"
 "http://www.w3.org/TR/2001/REC-SVG-20010904/DTD/svg10.dtd">
<svg version="1.0" xmlns="http://www.w3.org/2000/svg"
 width="700.000000pt" height="700.000000pt" viewBox="0 0 700.000000 700.000000"
 preserveAspectRatio="xMidYMid meet">
<metadata>
Created by potrace 1.14, written by Peter Selinger 2001-2017
</metadata>
<g transform="translate(0.000000,700.000000) scale(0.100000,-0.100000)"
fill="#000000" stroke="none">
<path d="M1719 6996 c-2 -2 -33 -7 -69 -10 -254 -27 -546 -140 -735 -286 -62
-48 -209 -205 -247 -265 -112 -173 -175 -361 -194 -572 -4 -43 -7 -1077 -7
-2298 0 -2066 1 -2224 17 -2284 35 -129 106 -231 202 -287 53 -31 157 -60 207
-58 21 1 37 -4 38 -10 0 -6 2 -130 3 -276 4 -290 8 -319 68 -432 84 -159 265
-239 477 -211 186 24 310 135 367 328 15 50 18 104 20 320 1 143 3 265 3 270
1 7 548 10 1624 9 892 -1 1627 -2 1632 -3 6 -1 10 -88 9 -243 -2 -278 7 -345
60 -453 76 -154 208 -230 403 -232 230 -3 382 110 449 332 15 50 18 102 19
322 1 145 4 265 7 268 2 3 31 10 64 16 222 39 370 182 391 379 8 74 8 4463 0
4565 -43 536 -299 899 -737 1045 -36 12 -74 23 -85 26 -11 2 -54 11 -95 21
-69 15 -229 17 -1981 20 -1048 2 -1907 1 -1910 -1z m3351 -711 c41 -21 60 -53
60 -102 0 -53 -38 -101 -90 -111 -26 -5 -2934 -8 -3079 -3 -12 1 -38 16 -57
35 -28 28 -34 42 -34 75 0 48 21 85 59 106 40 22 3098 22 3141 0z m715 -714
c126 -50 214 -147 258 -285 22 -71 22 -72 21 -851 l0 -780 -27 -78 c-41 -117
-72 -161 -164 -233 -41 -33 -119 -62 -185 -71 -29 -3 -1027 -6 -2218 -6
l-2165 1 -71 24 c-158 55 -261 183 -292 363 -5 28 -8 390 -7 805 l1 755 24 70
c55 162 153 259 303 300 44 12 382 13 2257 12 l2205 -2 60 -24z m-15 -3271
c314 -124 395 -534 153 -767 -86 -83 -177 -123 -297 -129 -355 -17 -597 342
-446 662 105 221 364 323 590 234z m-4240 14 c102 -30 197 -100 261 -194 13
-19 24 -37 25 -40 0 -3 8 -22 17 -43 70 -161 25 -371 -108 -503 -84 -82 -180
-124 -296 -129 -145 -7 -260 37 -360 137 -152 153 -177 395 -61 573 63 96 143
159 246 195 69 23 205 26 276 4z"/>
</g>
</svg>
